<svg xmlns="http://www.w3.org/2000/svg" version="1.1" xmlns:xlink="http://www.w3.org/1999/xlink" xmlns:svgjs="http://svgjs.com/svgjs" width="100%" height="100%" viewBox="0 0 1000 600"><rect width="1000" height="600" x="0" y="0" fill="#ffffff"/><g><rect width="333.3333333333333" height="333.3333333333333" rx="13.333333333333334" ry="13.333333333333334" y="180.89048158089318" fill="#ffffff" transform="matrix(0.7878072467495899,0,0,0.7878072467495899,0,26.191959374058)" x="158.66825866699216"/><path d="M371.2376451247656 381.7358036598889L371.2376451247656 381.7358036598889Q371.2376451247656 401.01097392973827 357.270953265022 411.7982562604345Q343.3042614052784 422.55715100605005 319.34513959710034 422.55715100605005L319.34513959710034 422.55715100605005Q293.39888683326774 422.55715100605005 279.43219497352413 415.8860685120668L279.43219497352413 415.8860685120668L279.43219497352413 399.506431920457Q288.4026718590505 403.31036832128143 298.9912410941813 405.4962123725014Q309.5514227442314 407.6820564237215 319.9412788837967 407.6820564237215L319.9412788837967 407.6820564237215Q336.91705476210296 407.6820564237215 345.49010545649844 401.26646219546524Q354.0631561508939 394.82248038212833 354.0631561508939 383.35389600949327L354.0631561508939 383.35389600949327Q354.0631561508939 375.74602320784436 351.0256845472505 370.9201337441118Q347.98821294360704 366.0658566952985 340.8629290883314 361.97804444366625Q333.7092576479749 357.890232192034 319.1464265015349 352.6953041222513L319.1464265015349 352.6953041222513Q298.79252799861587 345.42808234157167 290.04915179373575 335.43565239313716Q281.30577558885557 325.4716100297835 281.30577558885557 309.40423687406224L281.30577558885557 309.40423687406224Q281.30577558885557 292.51362375099836 293.9950261199641 282.5495813876447Q306.65588906599186 272.5571514392102 327.5207641003649 272.5571514392102L327.5207641003649 272.5571514392102Q349.29404185732295 272.5571514392102 367.54725906426427 280.5624504319901L367.54725906426427 280.5624504319901L362.26716823923925 295.3239946739955Q344.1842765427826 287.74450945742734 327.123337909234 287.74450945742734L327.123337909234 287.74450945742734Q313.6676225809444 287.74450945742734 306.0597497792955 293.5355768139064Q298.4802645627273 299.3266441703854 298.4802645627273 309.60294996962773L298.4802645627273 309.60294996962773Q298.4802645627273 317.1824351861959 301.29063548572447 322.00832464992845Q304.0726188236409 326.86260169874174 310.71531373254334 330.8936387802124Q317.3580086414458 334.95306344676396 331.0124370653008 339.8357280806581L331.0124370653008 339.8357280806581Q353.97799339565154 348.01135258392264 362.6078192602086 357.40764324566067Q371.2376451247656 366.77554632231795 371.2376451247656 381.7358036598889Z " fill="#313131" transform="matrix(0.7878072467495899,0,0,0.7878072467495899,0,26.191959374058)"/><path d="M662.8980946793121 383.62213031327644L662.8980946793121 383.62213031327644Q662.8980946793121 402.00660634121004 649.5767954072306 412.29541472208587Q636.2554961351492 422.5571472914331 613.4035112049933 422.5571472914331L613.4035112049933 422.5571472914331Q588.6562194678339 422.5571472914331 575.3349201957525 416.19433158220727L575.3349201957525 416.19433158220727L575.3349201957525 400.5715883301931Q583.8908766387966 404.1997470750283 593.9901543389722 406.2845845627321Q604.062356227619 408.3694220504359 613.9721032470943 408.3694220504359L613.9721032470943 408.3694220504359Q630.1634385412095 408.3694220504359 638.3403336228529 402.25028864496755Q646.5172287044965 396.10407942797065 646.5172287044965 385.16545157040787L646.5172287044965 385.16545157040787Q646.5172287044965 377.90913408073754 643.6201168709341 373.30624612087195Q640.7230050373715 368.6762823494778 633.9269763436878 364.7773654893565Q627.1038718384754 360.8784486292351 613.2139805242929 355.9235751194974L613.2139805242929 355.9235751194974Q593.8006236582718 348.9921673681705 585.4612737074566 339.461481710096Q577.1219237566414 329.95787186355017 577.1219237566414 314.63296253835085L577.1219237566414 314.63296253835085Q577.1219237566414 298.52285467882143 589.224811509935 289.01924483227555Q601.3006234516998 279.488559174201 621.201344925236 279.488559174201L621.201344925236 279.488559174201Q641.9684923676881 279.488559174201 659.3782391805913 287.1239380252721L659.3782391805913 287.1239380252721L654.3421382362678 301.2033600201549Q637.0948462925364 293.9741183420132 620.8222835638354 293.9741183420132L620.8222835638354 293.9741183420132Q607.9883488992691 293.9741183420132 600.7320314095988 299.4975838938518Q593.502789731457 305.02104944569044 593.502789731457 314.8224932190511L593.502789731457 314.8224932190511Q593.502789731457 322.0517348971929 596.1832950727904 326.65462285705837Q598.8367246025953 331.28458662845253 605.1724645002926 335.1293518655167Q611.5082043979897 339.0011929141094 624.5316697432564 343.65823249703226L624.5316697432564 343.65823249703226Q646.4360012699107 351.45606621727507 654.6670479746114 360.4181598332485Q662.8980946793121 369.3531776376933 662.8980946793121 383.62213031327644ZM733.0515223499684 422.5571472914331L733.0515223499684 422.5571472914331Q709.9287793045263 422.5571472914331 696.5533284093875 408.4777252965504Q683.177877514249 394.3983033016675 683.177877514249 369.3531776376933L683.177877514249 369.3531776376933Q683.177877514249 344.11852129301883 695.6056750058859 329.28097657533465Q708.0063966859942 314.44343185765047 728.9630748091466 314.44343185765047L728.9630748091466 314.44343185765047Q748.565962355868 314.44343185765047 759.991954820946 327.3315181452739Q771.4179472860241 340.2196044328974 771.4179472860241 361.3658132367502L771.4179472860241 361.3658132367502L771.4179472860241 371.3567876908113L699.5587434890646 371.3567876908113Q700.0190322850511 389.7141879072161 708.8186710318529 399.24487356529073Q717.6453855901833 408.77555922336524 733.6201143920695 408.77555922336524L733.6201143920695 408.77555922336524Q750.4612691628716 408.77555922336524 766.9504383838015 401.7087724143952L766.9504383838015 401.7087724143952L766.9504383838015 415.8152702208066Q758.5569368099292 419.41635315411315 751.0840128280298 420.98675022277314Q743.6110888461304 422.5571472914331 733.0515223499684 422.5571472914331ZM728.7735441284464 327.6564278836174L728.7735441284464 327.6564278836174Q716.2103675791662 327.6564278836174 708.7374435972671 335.86039877678945Q701.2645196153677 344.0372938584329 699.9378048504651 358.49577721471644L699.9378048504651 358.49577721471644L754.4684892691074 358.49577721471644Q754.4684892691074 343.5499292509178 747.8078396330667 335.61671647303183Q741.147189997026 327.6564278836174 728.7735441284464 327.6564278836174ZM846.9053098278188 314.63296253835085L846.9053098278188 314.63296253835085Q867.455850778042 314.63296253835085 878.8276916200626 328.65823291017637Q890.1995324620833 342.71057909353055 890.1995324620833 368.4055242341916L890.1995324620833 368.4055242341916Q890.1995324620833 394.10046937485276 878.7464641854768 408.3423462389072Q867.2663200973415 422.5571472914331 846.9053098278188 422.5571472914331L846.9053098278188 422.5571472914331Q836.7248046930573 422.5571472914331 828.2771514961277 418.79360948895487Q819.8565741107267 415.0571474980052 814.1435778781876 407.2322379662338L814.1435778781876 407.2322379662338L813.0063937939855 407.2322379662338L809.6760689759652 420.6618404844297L798.3583797570017 420.6618404844297L798.3583797570017 272.5571514228741L814.1435778781876 272.5571514228741L814.1435778781876 308.54090494441107Q814.1435778781876 320.61671688617594 813.3854551553862 330.22862997883635L813.3854551553862 330.22862997883635L814.1435778781876 330.22862997883635Q825.1905089818648 314.63296253835085 846.9053098278188 314.63296253835085ZM844.6038658478859 327.8459585643177L844.6038658478859 327.8459585643177Q828.4396063652993 327.8459585643177 821.2915921217435 337.1329619186347Q814.1435778781876 346.4199652729516 814.1435778781876 368.4055242341916L814.1435778781876 368.4055242341916Q814.1435778781876 390.39108319543163 821.4811228024438 399.8676172304489Q828.8186677267 409.3441512654663 844.9829272092867 409.3441512654663L844.9829272092867 409.3441512654663Q859.5497138116847 409.3441512654663 866.6977280552406 398.7304331462469Q873.8457422987964 388.11671502702757 873.8457422987964 368.2159935534912L873.8457422987964 368.2159935534912Q873.8457422987964 347.8549832839685 866.6977280552406 337.8369330183788Q859.5497138116847 327.8459585643177 844.6038658478859 327.8459585643177ZM961.8962813898712 422.5571472914331L961.8962813898712 422.5571472914331Q938.7464625329004 422.5571472914331 925.3710116377616 408.4777252965504Q911.9955607426231 394.3983033016675 911.9955607426231 369.3531776376933L911.9955607426231 369.3531776376933Q911.9955607426231 344.11852129301883 924.42335823426 329.28097657533465Q936.851155725897 314.44343185765047 957.7807580375207 314.44343185765047L957.7807580375207 314.44343185765047Q977.4107213957708 314.44343185765047 988.8367138608488 327.3315181452739Q1000.2356305143982 340.2196044328974 1000.2356305143982 361.3658132367502L1000.2356305143982 361.3658132367502L1000.2356305143982 371.3567876908113L928.3764267174387 371.3567876908113Q928.8637913249539 389.7141879072161 937.6634300717557 399.24487356529073Q946.4630688185572 408.77555922336524 962.4648734319723 408.77555922336524L962.4648734319723 408.77555922336524Q979.3060282027742 408.77555922336524 995.7681216121756 401.7087724143952L995.7681216121756 401.7087724143952L995.7681216121756 415.8152702208066Q987.4016958498318 419.41635315411315 979.9287718679326 420.98675022277314Q972.4558478860332 422.5571472914331 961.8962813898712 422.5571472914331ZM957.5912273568205 327.6564278836174L957.5912273568205 327.6564278836174Q945.0280508075404 327.6564278836174 937.555126825641 335.86039877678945Q930.0822028437418 344.0372938584329 928.7554880788392 358.49577721471644L928.7554880788392 358.49577721471644L983.3132483090102 358.49577721471644Q983.3132483090102 343.5499292509178 976.6525986729695 335.61671647303183Q969.9648732254001 327.6564278836174 957.5912273568205 327.6564278836174ZM1042.0406835145886 367.2683401499895L1042.7988062373897 367.2683401499895Q1046.8872537782117 361.447040671336 1055.2536795405554 352.0246582593761L1055.2536795405554 352.0246582593761L1088.9630648936882 316.3387386646539L1107.7266022830227 316.3387386646539L1065.4612604868457 360.7972211946492L1110.6778657396421 420.6618404844297L1091.5352669889076 420.6618404844297L1054.6850874984543 371.3567876908113L1042.7988062373897 381.64559607168724L1042.7988062373897 420.6618404844297L1027.1760629853757 420.6618404844297L1027.1760629853757 272.5571514228741L1042.7988062373897 272.5571514228741L1042.7988062373897 351.0770048558743Q1042.7988062373897 356.3026364808982 1042.0406835145886 367.2683401499895L1042.0406835145886 367.2683401499895Z " fill="#313131" transform="matrix(0.7878072467495899,0,0,0.7878072467495899,0,26.191959374058)"/></g></svg>